<svg width="1080" height="1080" viewBox="0 0 1080 1080" fill="none" xmlns="http://www.w3.org/2000/svg">
<path opacity="0.9" d="M0 804.93V1080H299.778H1080V920.249V774.15L1029 760H831.77L0 804.93Z" fill="#F7F3F3"/>
<rect width="90.7398" height="73.6136" transform="matrix(0.722335 -0.691543 0.682198 0.731168 105.969 822.344)" fill="white"/>
<path fill-rule="evenodd" clip-rule="evenodd" d="M285.266 659L289.541 733.411L301.954 796.501L270.389 787.213L255.167 766.848L175.898 910.956L67 828.755L119.804 786.447L196.735 728.395L181.159 722.578L162.877 688.2L224.152 679.388L285.289 659.023L285.266 659ZM175.164 784.438L163.943 784.879L164.047 785.077L157.846 793.61C157.811 796.617 157.777 799.624 157.743 802.631L151.714 799.856L142.349 799.079L137.902 803.107L135.037 807.113L134.682 811.385L128.401 809.412L127.507 809.11L121.099 811.385L119.873 814.741L118.463 821.289L121.409 827.443L126.635 829.695L126.739 829.567C126.716 829.788 126.693 829.997 126.658 830.217L189.091 829.869V829.498L196.288 828.116L201.813 824.923L202.65 817.26L202.123 811.246L199.727 806.289L193.95 803.189L190.168 800.53L190.191 791.602L186.019 787.422L175.153 784.415L175.164 784.438Z" fill="#00A65D"/>
<path d="M0 0H1056.53H1080V21.4176V130V157H275H69H0V134.5V0Z" fill="white"/>
<rect x="842.616" y="57.2969" width="187.468" height="43.4288" fill="white"/>
<path d="M888.618 71.1449L887.74 78.7247L891.178 78.5761L891.032 70.8477L888.618 71.1449Z" fill="#EC008C"/>
<path d="M1001.06 78.799L1008.52 80.2853L1010.71 88.3852L1019.42 79.8394L1020 71.8137L1009.25 69.8816L1001.06 78.799Z" fill="#EC008C"/>
<path d="M846.701 49L831.558 52.9385L823.292 65.4972L822.999 99.3091L831.046 104.139L839.678 104.957L877.864 106.666L1032.8 105.477L1044.73 93.6614L1044.95 53.3101L1039.9 50.1147L846.701 49ZM873.183 93.8844L864.843 95.1477L864.258 83.2578L859.43 86.6018L855.552 83.2578L855.187 95.3706H846.774L846.116 85.5614L846.92 65.2H853.285L860.454 75.3807L866.745 65.2743H873.256L873.183 93.8844ZM893.227 94.1073L891.617 81.9945H887.448L886.277 93.4385H878.011L881.229 72.4082C881.229 72.4082 883.497 62.9706 883.936 63.1193C884.375 63.2679 894.909 63.7881 894.909 63.7881L898.86 73.0027L902.151 94.999L893.227 94.1073ZM926.512 93.5128L921.61 94.5532L910.272 93.6614L905.809 87.4935L905.517 81.4743L905.443 75.1578L907.199 69.733L911.076 64.9771L918.611 63.7881L923.22 64.5312L927.902 65.2L927.755 67.578L926.439 73.4486L918.318 71.2192L914.002 74.3403L913.417 82.0688L916.855 86.1559L920.147 85.4128V81.4743C918.977 81.3257 918.831 81.3257 918.831 81.3257C918.684 81.2514 918.831 77.9816 918.831 77.9816L928.048 78.6504V82.4403L928.121 86.2302L926.512 93.5128ZM951.823 72.4082L942.093 72.5569V75.7523L950.213 75.3807L950.14 82.366L941.581 82.9605L942.167 86.0073L951.75 86.8247L951.677 94.1816L933.754 94.1073L933.9 65.2L951.823 65.7202V72.4082ZM975.89 94.033L957.822 93.9587L957.968 62.9706L965.795 63.0449L966.015 86.0816L976.037 85.7844L975.89 94.033ZM978.67 91.878L978.012 69.2128L978.817 61.4844L986.059 61.9303L985.913 84.2238L992.277 84.2981L995.642 84.5954L995.715 92.844L978.67 91.878ZM1024.98 88.1624L1017.22 94.5532L1001.13 91.0605L997.471 77.6844L999.958 65.7945C999.958 65.7945 1009.69 62.822 1011.22 62.6734L1018.17 63.6394L1026.15 72.1853L1024.98 88.1624Z" fill="#EC008C"/>
<path d="M888.618 71.1449L887.74 78.7247L891.178 78.5761L891.032 70.8477L888.618 71.1449Z" fill="#EC008C"/>
<path d="M1001.06 78.799L1008.52 80.2853L1010.71 88.3852L1019.42 79.8394L1020 71.8137L1009.25 69.8816L1001.06 78.799Z" fill="#EC008C"/>
<path d="M846.701 49L831.558 52.9385L823.292 65.4972L822.999 99.3091L831.046 104.139L839.678 104.957L877.864 106.666L1032.8 105.477L1044.73 93.6614L1044.95 53.3101L1039.9 50.1147L846.701 49ZM873.183 93.8844L864.843 95.1477L864.258 83.2578L859.43 86.6018L855.552 83.2578L855.187 95.3706H846.774L846.116 85.5614L846.92 65.2H853.285L860.454 75.3807L866.745 65.2743H873.256L873.183 93.8844ZM893.227 94.1073L891.617 81.9945H887.448L886.277 93.4385H878.011L881.229 72.4082C881.229 72.4082 883.497 62.9706 883.936 63.1193C884.375 63.2679 894.909 63.7881 894.909 63.7881L898.86 73.0027L902.151 94.999L893.227 94.1073ZM926.512 93.5128L921.61 94.5532L910.272 93.6614L905.809 87.4935L905.517 81.4743L905.443 75.1578L907.199 69.733L911.076 64.9771L918.611 63.7881L923.22 64.5312L927.902 65.2L927.755 67.578L926.439 73.4486L918.318 71.2192L914.002 74.3403L913.417 82.0688L916.855 86.1559L920.147 85.4128V81.4743C918.977 81.3257 918.831 81.3257 918.831 81.3257C918.684 81.2514 918.831 77.9816 918.831 77.9816L928.048 78.6504V82.4403L928.121 86.2302L926.512 93.5128ZM951.823 72.4082L942.093 72.5569V75.7523L950.213 75.3807L950.14 82.366L941.581 82.9605L942.167 86.0073L951.75 86.8247L951.677 94.1816L933.754 94.1073L933.9 65.2L951.823 65.7202V72.4082ZM975.89 94.033L957.822 93.9587L957.968 62.9706L965.795 63.0449L966.015 86.0816L976.037 85.7844L975.89 94.033ZM978.67 91.878L978.012 69.2128L978.817 61.4844L986.059 61.9303L985.913 84.2238L992.277 84.2981L995.642 84.5954L995.715 92.844L978.67 91.878ZM1024.98 88.1624L1017.22 94.5532L1001.13 91.0605L997.471 77.6844L999.958 65.7945C999.958 65.7945 1009.69 62.822 1011.22 62.6734L1018.17 63.6394L1026.15 72.1853L1024.98 88.1624Z" fill="#EC008C"/>
<path d="M758.932 815.375L760.913 861.607L754.689 861.868L729.645 827.197L731.173 862.855L724.981 863.115L723 816.884L729.192 816.624L754.337 851.386L752.805 815.632L758.932 815.375Z" fill="black"/>
<path d="M780.588 857.218L788.925 826.013L795.277 825.746L783.053 865.99C782.768 866.85 782.38 867.778 781.887 868.774C781.416 869.791 780.793 870.76 780.019 871.684C779.244 872.607 778.291 873.368 777.16 873.967C776.051 874.586 774.705 874.929 773.122 874.995C772.651 875.015 772.05 874.976 771.317 874.88C770.584 874.783 770.067 874.699 769.764 874.627L769.527 869.865C769.699 869.879 769.968 869.889 770.332 869.895C770.719 869.921 770.987 869.931 771.137 869.925C772.484 869.869 773.621 869.641 774.547 869.241C775.473 868.863 776.24 868.248 776.846 867.395C777.474 866.563 777.994 865.428 778.403 863.99L780.588 857.218ZM772.178 826.716L782.336 853.01L784.141 859.137L779.967 861.475L765.697 826.988L772.178 826.716Z" fill="black"/>
<path d="M823.1 829.986L824.34 858.944L818.405 859.193L816.933 824.837L822.708 824.595L823.1 829.986ZM833.704 823.943L833.906 829.405C833.409 829.32 832.936 829.276 832.486 829.274C832.057 829.25 831.564 829.249 831.008 829.273C829.639 829.33 828.439 829.592 827.409 830.06C826.38 830.527 825.517 831.157 824.823 831.95C824.128 832.742 823.59 833.677 823.207 834.753C822.845 835.807 822.627 836.962 822.552 838.216L820.925 839.239C820.836 837.164 820.956 835.208 821.284 833.371C821.634 831.532 822.217 829.896 823.034 828.462C823.85 827.007 824.915 825.86 826.229 825.02C827.564 824.158 829.172 823.688 831.054 823.609C831.482 823.591 831.976 823.623 832.537 823.705C833.096 823.767 833.486 823.846 833.704 823.943Z" fill="black"/>
<path d="M837.737 841.555L837.706 840.825C837.6 838.348 837.865 836.036 838.501 833.888C839.137 831.72 840.105 829.824 841.407 828.2C842.708 826.555 844.313 825.257 846.222 824.308C848.13 823.337 850.293 822.801 852.71 822.7C855.148 822.597 857.359 822.95 859.344 823.757C861.349 824.542 863.07 825.7 864.507 827.23C865.964 828.738 867.102 830.546 867.921 832.654C868.739 834.74 869.201 837.021 869.307 839.498L869.338 840.228C869.444 842.705 869.179 845.017 868.543 847.164C867.906 849.312 866.927 851.208 865.605 852.854C864.303 854.478 862.698 855.776 860.79 856.746C858.902 857.695 856.739 858.221 854.301 858.323C851.862 858.425 849.651 858.083 847.668 857.297C845.683 856.49 843.963 855.332 842.505 853.824C841.068 852.294 839.941 850.486 839.123 848.399C838.305 846.313 837.843 844.031 837.737 841.555ZM843.641 840.575L843.672 841.306C843.746 843.02 844.018 844.631 844.49 846.138C844.961 847.624 845.627 848.932 846.49 850.062C847.374 851.191 848.451 852.069 849.72 852.694C850.989 853.298 852.447 853.566 854.094 853.497C855.719 853.428 857.128 853.041 858.319 852.333C859.53 851.604 860.517 850.64 861.28 849.441C862.043 848.243 862.595 846.884 862.937 845.364C863.3 843.822 863.444 842.193 863.371 840.479L863.34 839.749C863.267 838.055 862.985 836.466 862.492 834.981C862.021 833.474 861.343 832.156 860.459 831.026C859.595 829.875 858.529 828.987 857.259 828.361C856.011 827.735 854.563 827.457 852.917 827.526C851.291 827.594 849.873 827.993 848.661 828.722C847.471 829.451 846.484 830.425 845.701 831.646C844.938 832.844 844.386 834.214 844.045 835.755C843.703 837.275 843.568 838.882 843.641 840.575Z" fill="black"/>
<path d="M881.86 807.671L883.95 856.442L877.982 856.693L875.892 807.921L881.86 807.671Z" fill="black"/>
<path d="M897.837 807L899.927 855.772L893.959 856.022L891.869 807.25L897.837 807Z" fill="black"/>
<path d="M914.532 808.844L915.537 842.043L910.179 842.268L908.308 809.105L914.532 808.844ZM909.97 852.392C909.929 851.439 910.184 850.623 910.733 849.942C911.304 849.261 912.167 848.896 913.322 848.847C914.455 848.8 915.336 849.092 915.963 849.723C916.611 850.353 916.956 851.144 916.996 852.097C917.035 853.007 916.759 853.803 916.167 854.486C915.596 855.167 914.744 855.531 913.61 855.579C912.455 855.627 911.564 855.336 910.937 854.705C910.332 854.073 910.009 853.302 909.97 852.392Z" fill="black"/>
</svg>
