<svg width="1585" height="397" viewBox="0 0 1585 397" fill="none" xmlns="http://www.w3.org/2000/svg">
<rect x="1187.69" y="126.079" width="270.81" height="61.9327" fill="white"/>
<path d="M1254.29 147.58L1253.02 158.39L1257.99 158.178L1257.78 147.156L1254.29 147.58Z" fill="#EC008C"/>
<path d="M1416.71 158.495L1427.49 160.615L1430.66 172.166L1443.24 159.979L1444.08 148.534L1428.55 145.778L1416.71 158.495Z" fill="#EC008C"/>
<path d="M1193.74 116L1171.86 121.617L1159.92 139.526L1159.5 187.745L1171.12 194.633L1183.59 195.799L1238.76 198.236L1462.58 196.541L1479.8 179.691L1480.12 122.147L1472.83 117.59L1193.74 116ZM1231.99 180.009L1219.95 181.81L1219.1 164.854L1212.13 169.623L1206.53 164.854L1206 182.128H1193.84L1192.89 168.139L1194.06 139.102H1203.25L1213.61 153.621L1222.69 139.208H1232.1L1231.99 180.009ZM1260.95 180.326L1258.62 163.053H1252.6L1250.91 179.373H1238.97L1243.62 149.382C1243.62 149.382 1246.89 135.923 1247.53 136.135C1248.16 136.347 1263.38 137.089 1263.38 137.089L1269.09 150.23L1273.84 181.598L1260.95 180.326ZM1309.03 179.479L1301.95 180.962L1285.57 179.691L1279.12 170.895L1278.7 162.311L1278.6 153.303L1281.13 145.567L1286.73 138.784L1297.62 137.089L1304.28 138.149L1311.04 139.102L1310.83 142.494L1308.92 150.866L1297.19 147.686L1290.96 152.137L1290.11 163.159L1295.08 168.987L1299.84 167.927V162.311C1298.15 162.099 1297.93 162.099 1297.93 162.099C1297.72 161.993 1297.93 157.33 1297.93 157.33L1311.25 158.284V163.688L1311.36 169.093L1309.03 179.479ZM1345.59 149.382L1331.54 149.594V154.151L1343.27 153.621L1343.16 163.582L1330.8 164.43L1331.64 168.775L1345.49 169.941L1345.38 180.432L1319.49 180.326L1319.7 139.102L1345.59 139.844V149.382ZM1380.36 180.22L1354.26 180.114L1354.47 135.923L1365.78 136.029L1366.1 168.881L1380.57 168.457L1380.36 180.22ZM1384.38 177.147L1383.43 144.825L1384.59 133.804L1395.05 134.44L1394.84 166.232L1404.03 166.338L1408.89 166.762L1409 178.525L1384.38 177.147ZM1451.27 171.848L1440.07 180.962L1416.82 175.981L1411.54 156.906L1415.13 139.95C1415.13 139.95 1429.18 135.711 1431.4 135.499L1441.44 136.877L1452.96 149.064L1451.27 171.848Z" fill="#EC008C"/>
<path d="M0.5 396V267L1254.46 393L1545.38 315.5L1584.5 167V396H0.5Z" fill="white" stroke="white"/>
</svg>
