<svg width="1080" height="1080" viewBox="0 0 1080 1080" fill="none" xmlns="http://www.w3.org/2000/svg">
<path d="M0 804.93V1080H299.778H1080V920.249V804.93L1019.94 774.15L831.77 760L0 804.93Z" fill="#F7F3F3"/>
<path d="M479.79 863.74L492.067 823.613L498.692 823.386L483.164 870.73L478.441 870.891L479.79 863.74ZM465.759 824.511L480.551 863.714L482.467 870.754L477.744 870.915L459.134 824.738L465.759 824.511Z" fill="black"/>
<path d="M524.141 863.382L523.545 845.494C523.5 844.123 523.185 842.945 522.602 841.957C522.04 840.947 521.21 840.183 520.114 839.663C519.018 839.143 517.677 838.91 516.093 838.964C514.613 839.015 513.322 839.316 512.22 839.868C511.138 840.42 510.294 841.124 509.688 841.98C509.103 842.836 508.826 843.746 508.858 844.709L502.995 844.91C502.953 843.668 503.229 842.426 503.822 841.184C504.416 839.942 505.288 838.808 506.438 837.783C507.609 836.735 509.02 835.894 510.67 835.259C512.34 834.602 514.211 834.238 516.282 834.167C518.775 834.082 520.987 834.435 522.918 835.226C524.869 836.017 526.413 837.261 527.548 838.959C528.704 840.634 529.325 842.767 529.411 845.358L529.95 861.544C529.989 862.7 530.125 863.928 530.358 865.227C530.613 866.526 530.957 867.64 531.39 868.568L531.407 869.082L525.289 869.291C524.971 868.616 524.708 867.714 524.501 866.585C524.294 865.434 524.174 864.367 524.141 863.382ZM524.651 848.221L524.854 852.394L518.926 852.596C517.257 852.653 515.772 852.843 514.471 853.166C513.17 853.468 512.084 853.902 511.214 854.467C510.345 855.033 509.691 855.73 509.253 856.56C508.814 857.368 508.613 858.307 508.649 859.378C508.685 860.47 508.961 861.457 509.477 862.34C509.993 863.222 510.746 863.915 511.736 864.417C512.746 864.897 513.97 865.112 515.407 865.063C517.203 865.002 518.775 864.562 520.123 863.744C521.471 862.927 522.527 861.947 523.293 860.807C524.08 859.665 524.488 858.569 524.517 857.517L527.116 860.29C526.998 861.194 526.63 862.204 526.011 863.318C525.392 864.432 524.55 865.511 523.485 866.555C522.44 867.577 521.178 868.445 519.7 869.16C518.242 869.853 516.584 870.231 514.724 870.295C512.4 870.374 510.345 869.984 508.561 869.123C506.797 868.261 505.404 867.077 504.38 865.568C503.378 864.038 502.844 862.309 502.78 860.382C502.718 858.519 503.022 856.869 503.694 855.432C504.365 853.973 505.36 852.749 506.682 851.761C508.002 850.751 509.605 849.967 511.49 849.41C513.376 848.853 515.491 848.534 517.837 848.454L524.651 848.221ZM506.422 825.855C506.39 824.892 506.659 824.068 507.228 823.384C507.798 822.7 508.642 822.339 509.762 822.301C510.904 822.262 511.781 822.564 512.395 823.207C513.009 823.851 513.331 824.654 513.364 825.618C513.394 826.539 513.125 827.341 512.555 828.025C511.985 828.687 511.129 829.038 509.988 829.077C508.868 829.115 508.002 828.823 507.389 828.201C506.775 827.558 506.453 826.776 506.422 825.855ZM520.085 825.453C520.053 824.489 520.311 823.666 520.86 822.983C521.43 822.299 522.285 821.937 523.426 821.898C524.546 821.86 525.413 822.163 526.027 822.806C526.661 823.449 526.995 824.252 527.027 825.215C527.058 826.136 526.778 826.939 526.187 827.623C525.617 828.286 524.772 828.636 523.652 828.675C522.51 828.714 521.633 828.422 521.02 827.8C520.428 827.156 520.116 826.373 520.085 825.453Z" fill="black"/>
<path d="M544.155 819.261L545.797 868.59L539.902 868.792L538.259 819.462L544.155 819.261Z" fill="black"/>
<path d="M559.465 818.738L561.107 868.067L555.211 868.269L553.569 818.939L559.465 818.738ZM580.902 832.602L566.481 849.332L558.406 858.417L557.72 852.107L563.469 844.644L573.738 832.847L580.902 832.602ZM576.702 867.534L563.915 851.381L566.782 845.978L583.612 867.298L576.702 867.534Z" fill="black"/>
<path d="M585.994 850.209L585.969 849.47C585.886 846.965 586.168 844.63 586.815 842.464C587.461 840.277 588.434 838.368 589.734 836.738C591.033 835.086 592.629 833.788 594.523 832.844C596.416 831.88 598.556 831.356 600.944 831.275C603.353 831.192 605.534 831.568 607.487 832.402C609.46 833.213 611.15 834.398 612.556 835.958C613.982 837.495 615.09 839.333 615.881 841.471C616.671 843.587 617.107 845.898 617.191 848.403L617.215 849.142C617.299 851.647 617.017 853.982 616.37 856.148C615.722 858.313 614.739 860.222 613.419 861.875C612.119 863.506 610.523 864.803 608.63 865.768C606.757 866.711 604.616 867.224 602.207 867.306C599.798 867.388 597.618 867.023 595.666 866.211C593.713 865.378 592.023 864.192 590.597 862.655C589.191 861.095 588.093 859.257 587.304 857.141C586.514 855.024 586.077 852.714 585.994 850.209ZM591.833 849.27L591.858 850.008C591.916 851.742 592.171 853.373 592.624 854.901C593.076 856.408 593.723 857.736 594.565 858.886C595.428 860.036 596.484 860.932 597.733 861.575C598.98 862.197 600.418 862.48 602.045 862.424C603.651 862.37 605.045 861.99 606.227 861.285C607.43 860.558 608.414 859.592 609.177 858.387C609.941 857.182 610.498 855.812 610.849 854.279C611.221 852.723 611.377 851.078 611.32 849.343L611.295 848.605C611.238 846.892 610.973 845.283 610.5 843.777C610.047 842.249 609.389 840.91 608.525 839.761C607.683 838.589 606.637 837.682 605.388 837.039C604.161 836.395 602.734 836.101 601.107 836.156C599.501 836.211 598.096 836.602 596.894 837.329C595.712 838.055 594.729 839.032 593.945 840.259C593.181 841.464 592.624 842.844 592.274 844.4C591.923 845.933 591.776 847.557 591.833 849.27Z" fill="black"/>
<path d="M630.04 837.836L630.967 865.68L625.071 865.882L623.914 831.133L629.493 830.942L630.04 837.836ZM629.14 847.03L626.411 847.027C626.353 844.65 626.586 842.445 627.111 840.412C627.635 838.358 628.453 836.562 629.565 835.023C630.678 833.485 632.087 832.279 633.792 831.406C635.497 830.512 637.491 830.026 639.773 829.948C641.379 829.893 642.866 830.078 644.234 830.503C645.601 830.907 646.798 831.584 647.824 832.535C648.85 833.486 649.663 834.722 650.264 836.245C650.865 837.768 651.202 839.621 651.274 841.805L652.045 864.96L646.181 865.161L645.42 842.294C645.359 840.475 645.005 839.029 644.355 837.958C643.727 836.886 642.856 836.123 641.74 835.668C640.625 835.192 639.327 834.979 637.848 835.03C636.115 835.089 634.678 835.449 633.536 836.109C632.395 836.77 631.494 837.658 630.833 838.774C630.172 839.89 629.706 841.159 629.436 842.583C629.187 843.985 629.088 845.467 629.14 847.03ZM651.25 842.996L647.361 844.35C647.318 842.444 647.564 840.603 648.097 838.827C648.651 837.051 649.476 835.458 650.572 834.048C651.688 832.638 653.079 831.508 654.743 830.659C656.406 829.787 658.326 829.314 660.503 829.24C662.341 829.177 663.976 829.368 665.409 829.812C666.862 830.255 668.092 830.974 669.098 831.969C670.125 832.941 670.918 834.211 671.478 835.778C672.038 837.345 672.354 839.22 672.427 841.404L673.187 864.238L667.291 864.439L666.529 841.541C666.464 839.593 666.108 838.094 665.459 837.044C664.831 835.973 663.96 835.241 662.847 834.851C661.755 834.438 660.458 834.257 658.958 834.308C657.669 834.352 656.535 834.616 655.557 835.1C654.579 835.583 653.765 836.233 653.115 837.048C652.465 837.842 651.976 838.748 651.651 839.767C651.346 840.785 651.213 841.861 651.25 842.996Z" fill="black"/>
<path d="M686.967 835.892L687.894 863.736L681.999 863.937L680.842 829.188L686.42 828.998L686.967 835.892ZM686.068 845.086L683.338 845.082C683.28 842.705 683.514 840.5 684.038 838.467C684.562 836.413 685.381 834.617 686.493 833.078C687.605 831.54 689.014 830.334 690.72 829.462C692.425 828.567 694.418 828.081 696.701 828.003C698.307 827.948 699.794 828.133 701.162 828.558C702.529 828.962 703.726 829.639 704.752 830.59C705.778 831.541 706.591 832.778 707.192 834.3C707.792 835.823 708.129 837.676 708.202 839.86L708.973 863.015L703.109 863.216L702.348 840.35C702.287 838.53 701.932 837.084 701.283 836.013C700.655 834.942 699.783 834.178 698.668 833.723C697.552 833.247 696.255 833.034 694.775 833.085C693.043 833.144 691.605 833.504 690.464 834.164C689.322 834.825 688.421 835.713 687.76 836.829C687.099 837.945 686.634 839.215 686.364 840.638C686.114 842.04 686.016 843.523 686.068 845.086ZM708.178 841.051L704.288 842.405C704.246 840.499 704.491 838.658 705.025 836.882C705.579 835.106 706.404 833.513 707.499 832.103C708.616 830.694 710.006 829.564 711.67 828.714C713.334 827.842 715.254 827.369 717.43 827.295C719.269 827.232 720.904 827.423 722.336 827.867C723.79 828.31 725.019 829.029 726.026 830.024C727.052 830.996 727.846 832.266 728.405 833.833C728.965 835.4 729.282 837.275 729.354 839.459L730.115 862.293L724.219 862.495L723.457 839.596C723.392 837.648 723.035 836.149 722.387 835.099C721.759 834.028 720.888 833.297 719.775 832.906C718.682 832.493 717.386 832.312 715.885 832.364C714.596 832.408 713.463 832.671 712.485 833.155C711.506 833.638 710.692 834.288 710.043 835.103C709.392 835.897 708.904 836.803 708.578 837.822C708.274 838.84 708.14 839.916 708.178 841.051Z" fill="black"/>
<path d="M753.243 862.146C750.855 862.228 748.676 861.895 746.705 861.148C744.754 860.378 743.056 859.268 741.612 857.817C740.188 856.365 739.072 854.624 738.264 852.594C737.456 850.564 737.012 848.329 736.93 845.888L736.886 844.539C736.791 841.713 737.12 839.183 737.87 836.95C738.62 834.695 739.678 832.773 741.042 831.183C742.407 829.593 743.974 828.371 745.743 827.517C747.513 826.664 749.36 826.204 751.283 826.139C753.734 826.055 755.861 826.411 757.665 827.207C759.489 828.002 760.998 829.15 762.19 830.653C763.382 832.134 764.287 833.904 764.906 835.962C765.524 837.998 765.873 840.237 765.954 842.678L766.043 845.343L740.432 846.218L740.271 841.369L760.018 840.694L760.003 840.245C759.867 838.706 759.5 837.218 758.902 835.781C758.325 834.343 757.44 833.173 756.247 832.271C755.053 831.368 753.453 830.952 751.445 831.02C750.114 831.066 748.898 831.396 747.797 832.013C746.696 832.608 745.762 833.476 744.996 834.616C744.23 835.757 743.652 837.138 743.262 838.759C742.872 840.38 742.711 842.239 742.781 844.338L742.826 845.686C742.881 847.335 743.155 848.88 743.647 850.32C744.159 851.739 744.867 852.98 745.77 854.042C746.694 855.103 747.789 855.923 749.057 856.502C750.345 857.079 751.793 857.341 753.399 857.286C755.469 857.215 757.209 856.727 758.617 855.821C760.026 854.916 761.245 853.728 762.275 852.256L765.92 854.993C765.218 856.153 764.314 857.267 763.207 858.333C762.1 859.4 760.723 860.283 759.075 860.982C757.448 861.681 755.504 862.069 753.243 862.146Z" fill="black"/>
<path d="M778.367 833.283L779.276 860.614L773.413 860.814L772.256 826.065L777.803 825.876L778.367 833.283ZM777.259 841.97L774.816 841.957C774.758 839.58 775.033 837.373 775.642 835.338C776.251 833.281 777.143 831.482 778.319 829.941C779.494 828.401 780.914 827.195 782.577 826.323C784.261 825.43 786.139 824.948 788.209 824.877C789.9 824.819 791.429 825.003 792.797 825.428C794.165 825.831 795.341 826.52 796.325 827.493C797.331 828.466 798.114 829.747 798.674 831.336C799.234 832.903 799.552 834.832 799.628 837.123L800.387 859.892L794.491 860.094L793.731 837.26C793.67 835.44 793.357 833.993 792.793 832.919C792.228 831.824 791.429 831.047 790.399 830.59C789.367 830.11 788.112 829.896 786.633 829.947C785.175 829.996 783.854 830.352 782.67 831.014C781.507 831.676 780.511 832.567 779.681 833.689C778.872 834.809 778.248 836.085 777.809 837.514C777.391 838.922 777.207 840.407 777.259 841.97Z" fill="black"/>
<path d="M814.71 812.59L815.415 846.165L810.122 846.345L808.561 812.8L814.71 812.59ZM809.828 856.58C809.796 855.616 810.054 854.793 810.602 854.11C811.172 853.426 812.027 853.064 813.168 853.025C814.288 852.987 815.155 853.29 815.769 853.933C816.404 854.576 816.737 855.379 816.77 856.343C816.8 857.263 816.52 858.066 815.929 858.751C815.36 859.434 814.515 859.796 813.395 859.834C812.254 859.873 811.377 859.571 810.763 858.927C810.17 858.283 809.859 857.5 809.828 856.58Z" fill="black"/>
<rect width="90.7398" height="73.6136" transform="matrix(0.722335 -0.691543 0.682198 0.731168 155.459 855.398)" fill="white"/>
<path fill-rule="evenodd" clip-rule="evenodd" d="M334.756 692.054L339.031 766.465L351.445 829.555L319.879 820.267L304.658 799.902L225.388 944.01L116.49 861.809L169.294 819.501L246.226 761.449L230.649 755.632L212.368 721.254L273.642 712.442L334.779 692.077L334.756 692.054ZM224.655 817.492L213.434 817.933L213.537 818.131L207.336 826.664C207.302 829.671 207.267 832.678 207.233 835.686L201.204 832.911L191.84 832.133L187.393 836.162L184.527 840.167L184.172 844.44L177.891 842.466L176.997 842.164L170.59 844.44L169.363 847.795L167.953 854.343L170.899 860.497L176.126 862.749L176.229 862.621C176.206 862.842 176.183 863.051 176.149 863.272L238.581 862.923V862.552L245.779 861.17L251.303 857.977L252.14 850.314L251.613 844.3L249.217 839.343L243.441 836.243L239.658 833.584L239.681 824.656L235.509 820.476L224.643 817.469L224.655 817.492Z" fill="#00A65D"/>
<path d="M0 130V0H1056.53H1080V21.4176V130H430.402H0Z" fill="white"/>
<rect x="846.615" y="44.2969" width="187.468" height="43.4288" fill="white"/>
<path d="M892.618 58.1449L891.74 65.7247L895.178 65.5761L895.032 57.8477L892.618 58.1449Z" fill="#EC008C"/>
<path d="M1005.06 65.7993L1012.52 67.2855L1014.71 75.3855L1023.42 66.8396L1024 58.8139L1013.25 56.8818L1005.06 65.7993Z" fill="#EC008C"/>
<path d="M850.702 36L835.559 39.9385L827.293 52.4972L827 86.3091L835.047 91.1394L843.679 91.9568L881.865 93.666L1036.81 92.477L1048.73 80.6614L1048.95 40.3101L1043.9 37.1147L850.702 36ZM877.184 80.8844L868.844 82.1477L868.259 70.2578L863.431 73.6018L859.553 70.2578L859.188 82.3706H850.775L850.117 72.5614L850.921 52.2H857.286L864.455 62.3807L870.746 52.2743H877.257L877.184 80.8844ZM897.228 81.1073L895.618 68.9945H891.449L890.278 80.4385H882.012L885.23 59.4082C885.23 59.4082 887.498 49.9706 887.937 50.1193C888.376 50.2679 898.91 50.7881 898.91 50.7881L902.861 60.0027L906.152 81.999L897.228 81.1073ZM930.513 80.5128L925.611 81.5532L914.272 80.6614L909.81 74.4935L909.518 68.4743L909.444 62.1578L911.2 56.733L915.077 51.9771L922.612 50.7881L927.221 51.5312L931.903 52.2L931.756 54.578L930.439 60.4486L922.319 58.2192L918.003 61.3403L917.418 69.0688L920.856 73.1559L924.148 72.4128V68.4743C922.978 68.3257 922.831 68.3257 922.831 68.3257C922.685 68.2514 922.831 64.9816 922.831 64.9816L932.049 65.6504V69.4403L932.122 73.2302L930.513 80.5128ZM955.824 59.4082L946.094 59.5569V62.7523L954.214 62.3807L954.141 69.366L945.582 69.9605L946.168 73.0073L955.751 73.8247L955.678 81.1816L937.755 81.1073L937.901 52.2L955.824 52.7202V59.4082ZM979.891 81.033L961.822 80.9587L961.969 49.9706L969.796 50.0449L970.016 73.0816L980.038 72.7844L979.891 81.033ZM982.671 78.878L982.013 56.2128L982.818 48.4844L990.06 48.9303L989.914 71.2238L996.278 71.2981L999.643 71.5954L999.716 79.844L982.671 78.878ZM1028.98 75.1624L1021.22 81.5532L1005.13 78.0605L1001.47 64.6844L1003.96 52.7945C1003.96 52.7945 1013.69 49.822 1015.22 49.6734L1022.17 50.6394L1030.15 59.1853L1028.98 75.1624Z" fill="#EC008C"/>
<path d="M892.618 58.1449L891.74 65.7247L895.178 65.5761L895.032 57.8477L892.618 58.1449Z" fill="#EC008C"/>
<path d="M1005.06 65.7993L1012.52 67.2855L1014.71 75.3855L1023.42 66.8396L1024 58.8139L1013.25 56.8818L1005.06 65.7993Z" fill="#EC008C"/>
<path d="M850.702 36L835.559 39.9385L827.293 52.4972L827 86.3091L835.047 91.1394L843.679 91.9568L881.865 93.666L1036.81 92.477L1048.73 80.6614L1048.95 40.3101L1043.9 37.1147L850.702 36ZM877.184 80.8844L868.844 82.1477L868.259 70.2578L863.431 73.6018L859.553 70.2578L859.188 82.3706H850.775L850.117 72.5614L850.921 52.2H857.286L864.455 62.3807L870.746 52.2743H877.257L877.184 80.8844ZM897.228 81.1073L895.618 68.9945H891.449L890.278 80.4385H882.012L885.23 59.4082C885.23 59.4082 887.498 49.9706 887.937 50.1193C888.376 50.2679 898.91 50.7881 898.91 50.7881L902.861 60.0027L906.152 81.999L897.228 81.1073ZM930.513 80.5128L925.611 81.5532L914.272 80.6614L909.81 74.4935L909.518 68.4743L909.444 62.1578L911.2 56.733L915.077 51.9771L922.612 50.7881L927.221 51.5312L931.903 52.2L931.756 54.578L930.439 60.4486L922.319 58.2192L918.003 61.3403L917.418 69.0688L920.856 73.1559L924.148 72.4128V68.4743C922.978 68.3257 922.831 68.3257 922.831 68.3257C922.685 68.2514 922.831 64.9816 922.831 64.9816L932.049 65.6504V69.4403L932.122 73.2302L930.513 80.5128ZM955.824 59.4082L946.094 59.5569V62.7523L954.214 62.3807L954.141 69.366L945.582 69.9605L946.168 73.0073L955.751 73.8247L955.678 81.1816L937.755 81.1073L937.901 52.2L955.824 52.7202V59.4082ZM979.891 81.033L961.822 80.9587L961.969 49.9706L969.796 50.0449L970.016 73.0816L980.038 72.7844L979.891 81.033ZM982.671 78.878L982.013 56.2128L982.818 48.4844L990.06 48.9303L989.914 71.2238L996.278 71.2981L999.643 71.5954L999.716 79.844L982.671 78.878ZM1028.98 75.1624L1021.22 81.5532L1005.13 78.0605L1001.47 64.6844L1003.96 52.7945C1003.96 52.7945 1013.69 49.822 1015.22 49.6734L1022.17 50.6394L1030.15 59.1853L1028.98 75.1624Z" fill="#EC008C"/>
</svg>
